<?xml version="1.0" encoding="iso-8859-1"?>
<!-- Generator: Adobe Illustrator 16.0.0, SVG Export Plug-In . SVG Version: 6.00 Build 0)  -->
<!DOCTYPE svg PUBLIC "-//W3C//DTD SVG 1.1//EN" "http://www.w3.org/Graphics/SVG/1.1/DTD/svg11.dtd">
<!-- License: CC0. Made by SVG Repo: https://www.svgrepo.com/svg/161146/moose-face-outline -->
<svg version="1.1" id="Capa_1" xmlns="http://www.w3.org/2000/svg" xmlns:xlink="http://www.w3.org/1999/xlink" x="0px" y="0px"
	 width="800px" height="800px" viewBox="0 0 800 800" style="enable-background:new 0 0 800 800;"
	 xml:space="preserve">
<g>
	<g>
		<path fill="#fff" d="M230.771,393.729c-10.764,0-20.757,6.33-27.405,17.365c-5.412,8.979-8.392,20.621-8.392,32.787s2.98,23.808,8.392,32.787
			c6.648,11.035,16.641,17.365,27.405,17.365s20.751-6.33,27.405-17.365c5.412-8.979,8.391-20.621,8.391-32.787
			s-2.979-23.808-8.391-32.787C251.528,400.06,241.541,393.729,230.771,393.729z M230.771,465.97
			c-2.426-0.901-7.761-9.151-7.761-22.088c0-12.938,5.335-21.188,7.761-22.088c2.426,0.906,7.761,9.15,7.761,22.088
			C238.532,456.812,233.197,465.062,230.771,465.97z"/>
		<path fill="#fff" d="M351.639,411.095c-5.411,8.979-8.391,20.621-8.391,32.787s2.979,23.808,8.391,32.787
			c6.654,11.035,16.642,17.365,27.405,17.365c10.765,0,20.751-6.33,27.405-17.365c5.412-8.979,8.392-20.621,8.392-32.787
			s-2.979-23.808-8.392-32.787c-6.654-11.035-16.641-17.365-27.405-17.365C368.28,393.729,358.293,400.06,351.639,411.095z
			 M379.044,421.794c2.427,0.9,7.762,9.15,7.762,22.088c0,12.937-5.335,21.187-7.762,22.088c-2.426-0.901-7.761-9.151-7.761-22.088
			C371.283,430.944,376.618,422.694,379.044,421.794z"/>
		<path fill="#fff" d="M601.672,62.765c-13.079-23.701-36.491-40.331-62.631-44.482c-13.685-2.173-27.546-0.518-40.295,4.24
			c-24.066,8.986-20.274,22.842-20.274,22.842c0.954,6.978,5.977,9.84,9.292,11.73c13.173,7.508,29.284,19.179,31.233,32.151
			c0.795,5.282-0.966,11.011-5.229,17.094c-4.264-6.807-9.828-13.349-16.446-19.197c-13.797-12.201-30.085-19.562-44.694-20.197
			c-3.374-0.147-20.574-0.271-28.188,11.777c-3.309,5.235-4.251,11.288-2.738,17.507c0.978,4.01,2.933,7.926,5.972,11.965
			c4.305,5.718,9.998,10.535,13.402,13.408c0.377,0.318,0.724,0.612,1.042,0.883c13.72,11.736,18.908,19.079,20.857,22.759
			c-4.965,2.55-9.958,4.905-14.881,7.078c-10.011-27.452-42.851-54.528-70.079-55.717c-3.374-0.147-20.574-0.271-28.188,11.777
			c-3.05,4.829-4.087,10.352-3.038,16.058c-18.667-5.865-35.768-6.401-41.303-6.401c-0.412,0-0.73,0-0.948,0.006
			c-0.224-0.006-0.542-0.006-0.954-0.006c-5.229,0-20.775,0.477-38.211,5.47c0.777-5.376-0.312-10.564-3.197-15.127
			c-7.614-12.048-24.814-11.924-28.183-11.777c-27.24,1.189-60.092,28.283-70.091,55.747c-4.929-2.173-9.922-4.528-14.886-7.083
			c0.341-0.636,0.765-1.378,1.301-2.203c2.532-3.916,7.979-10.664,19.573-20.58c0.318-0.271,0.666-0.565,1.042-0.883
			c3.403-2.874,9.098-7.69,13.402-13.408c3.039-4.04,4.993-7.95,5.971-11.965c1.52-6.219,0.571-12.272-2.732-17.507
			c-7.614-12.048-24.814-11.924-28.183-11.777c-14.609,0.636-30.897,7.997-44.694,20.197c-6.613,5.848-12.178,12.39-16.441,19.197
			c-4.269-6.083-6.024-11.812-5.235-17.094c1.949-12.973,18.06-24.644,31.233-32.151c3.321-1.89,8.338-4.752,9.298-11.73
			c0,0,2.232-13.855-20.274-22.842c-12.637-5.046-26.61-6.413-40.295-4.24c-26.163,4.146-49.576,20.775-62.654,44.476
			c-4.016,7.284-6.931,15.045-8.662,23.065c-4.022,18.649-0.754,36.851,9.716,54.098c7.802,12.855,19.762,25.232,35.543,36.792
			c23.63,17.312,51.101,31.439,79.436,40.855c6.79,2.255,13.573,4.233,20.327,5.93c-5.765,6.183-11.294,14.085-16.299,24.154
			c-9.928,19.992-13.202,39.701-13.332,40.531l-2.715,16.765l16.977-0.512c20.999-0.636,39.359-7.414,53.58-15.039
			c-2.944,19.014-6.042,37.58-9.551,53.062c-6.76,29.831-12.207,35.042-12.919,35.613c-20.357,13.079-24.337,43.628-24.897,60.682
			c-0.942,28.736,6.224,65.692,24.196,78.936c6.813,5.022,14.186,8.515,21.629,11.171c-0.412,1.083-0.807,2.196-1.184,3.345
			c-5.506,16.87-3.757,32.039,5.052,43.869c12.236,16.435,38.535,18.648,62.642,18.648c10.693,0,21.864-0.529,31.715-1.001
			c8.485-0.406,16.494-0.789,23.019-0.789c6.519,0,14.534,0.383,23.019,0.789c9.851,0.472,21.021,1.001,31.709,1.001
			c0.006,0,0.006,0,0.006,0c24.114,0,50.406-2.22,62.643-18.648c8.809-11.83,10.558-27.005,5.052-43.869
			c-0.377-1.166-0.783-2.291-1.195-3.387c7.402-2.649,14.733-6.136,21.511-11.129c17.972-13.243,25.139-50.199,24.196-78.936
			c-0.56-17.053-4.54-47.603-24.896-60.682c-0.707-0.564-6.159-5.776-12.92-35.613c-3.539-15.604-6.659-34.342-9.621-53.515
			c14.332,7.814,32.999,14.851,54.415,15.499l16.977,0.513l-2.714-16.765c-0.136-0.831-3.404-20.54-13.332-40.531
			c-4.888-9.84-10.281-17.613-15.904-23.731c7.343-1.79,14.715-3.904,22.1-6.359c28.335-9.41,55.805-23.537,79.436-40.854
			c15.781-11.56,27.735-23.943,35.543-36.792c10.47-17.247,13.744-35.449,9.717-54.098
			C608.603,77.804,605.688,70.043,601.672,62.765z M460.341,101.188c-0.353-0.306-0.747-0.636-1.172-0.995
			c-2.237-1.896-4.122-3.581-5.641-5.047c14.662,1.938,32.952,16.983,39.394,31.469c-1.907,1.46-3.851,2.885-5.835,4.263
			C482.063,121.979,473.249,112.229,460.341,101.188z M421.983,162.51c-2.474,0.854-4.876,1.649-7.172,2.391
			c-4.328-9.911-13.874-21.04-29.084-34.048c-0.354-0.306-0.748-0.636-1.166-0.989c-2.231-1.884-4.11-3.568-5.629-5.034
			C394.702,127.115,416.713,146.588,421.983,162.51z M374.469,382.817c15.787-2.702,32.01,4.57,42.845,11.147
			c9.869,5.994,17.271,12.572,20.156,15.286c3.904,8.139,5.718,20.333,6.048,30.427c0.901,27.423-6.983,51.153-12.808,55.44
			c-7.438,5.481-17.012,8.521-26.84,10.981c-2.727,0.684-5.471,1.325-8.203,1.961c-11.936,2.773-23.206,5.4-31.927,11.536
			c-12.496,8.791-35.185,14.256-59.204,14.256c-24.025,0-46.713-5.465-59.209-14.256c-8.721-6.142-19.992-8.763-31.928-11.536
			c-2.726-0.636-5.476-1.277-8.203-1.961c-9.828-2.461-19.403-5.5-26.84-10.981c-5.824-4.293-13.708-28.023-12.808-55.44
			c0.459-13.938,2.944-23.796,5.971-30.114c5.7-5.37,35.219-31.562,63.319-26.752l4.734-27.629
			c-13.896-2.379-27.37-0.218-39.459,4.005c3.315-12.584,6.248-27.653,9.181-45.077c4.452,12.914,17.642,21.605,33.588,21.605l0,0
			c2.591,0,5.217-0.242,7.802-0.713c9.198-1.684,17.448-6.23,23.212-12.796c6.489-7.384,9.269-16.788,7.614-25.792
			c-2.792-15.228-17.059-25.862-34.707-25.862c-2.591,0-5.217,0.241-7.802,0.712c-9.198,1.684-17.448,6.23-23.213,12.796
			c-0.765,0.871-1.478,1.772-2.137,2.703c0.677-4.411,1.36-8.939,2.061-13.579c5.918-39.329,12.625-83.911,21.246-98.22
			c16.924-28.077,61.582-28.889,66.617-28.889c0.336,0,0.542,0,0.577,0.006l0.312,0.012l0.406-0.012
			c0.065,0,0.271-0.006,0.607-0.006c5.035,0,49.693,0.812,66.617,28.889c8.627,14.309,15.334,58.891,21.246,98.22
			c0.636,4.24,1.266,8.385,1.884,12.431c-0.412-0.524-0.836-1.048-1.283-1.554c-5.771-6.566-14.015-11.112-23.213-12.796
			c-2.585-0.477-5.205-0.712-7.803-0.712c-17.647,0-31.915,10.634-34.706,25.862c-1.649,9.003,1.124,18.402,7.619,25.792
			c5.771,6.565,14.015,11.111,23.213,12.796c2.585,0.477,5.205,0.713,7.802,0.713c15.423,0,28.266-8.127,33.123-20.339
			c2.856,16.847,5.718,31.456,8.945,43.716c-12.019-4.163-25.397-6.277-39.188-3.91L374.469,382.817z M236.859,302.569
			c1.602-1.819,4.228-3.18,7.208-3.721c0.925-0.171,1.849-0.253,2.75-0.253c4.275,0,6.954,1.902,7.131,2.879
			c0.071,0.389-0.241,1.254-1.101,2.232c-1.602,1.819-4.228,3.179-7.208,3.721c-0.918,0.171-1.843,0.254-2.744,0.254l0,0
			c-4.275,0-6.954-1.902-7.131-2.88C235.682,304.412,236,303.546,236.859,302.569z M373.992,304.801
			c-0.177,0.978-2.862,2.88-7.131,2.88c-0.901,0-1.826-0.089-2.75-0.254c-2.98-0.548-5.606-1.902-7.208-3.721
			c-0.859-0.978-1.172-1.843-1.102-2.238c0.177-0.978,2.856-2.879,7.132-2.879c0.9,0,1.825,0.088,2.75,0.253
			c2.979,0.548,5.605,1.902,7.207,3.722C373.75,303.546,374.062,304.412,373.992,304.801z M233.073,124.824
			c-1.52,1.466-3.398,3.145-5.629,5.035c-0.424,0.359-0.813,0.689-1.166,0.989c-15.216,13.02-24.767,24.155-29.089,34.071
			c-2.302-0.736-4.699-1.537-7.172-2.385C195.263,146.605,217.286,127.115,233.073,124.824z M158.471,95.146
			c-1.519,1.473-3.403,3.156-5.647,5.047c-0.424,0.359-0.812,0.689-1.172,0.989c-12.907,11.047-21.729,20.804-26.746,29.702
			c-1.984-1.384-3.928-2.809-5.835-4.269C125.513,112.134,143.803,97.083,158.471,95.146z M63.496,154.107
			c-12.796-9.375-22.265-19.038-28.147-28.73c-6.719-11.07-8.774-22.07-6.277-33.635c1.154-5.353,3.109-10.546,5.806-15.434
			c8.797-15.946,25.073-27.57,42.474-30.332c4.528-0.718,9.086-0.818,13.543-0.318c-11.265,9.057-23.03,22.2-25.621,39.429
			c-2.397,15.964,3.521,31.645,17.595,46.62c33.67,35.826,88.752,55.329,117.888,63.631c-0.577,2.473-1.136,5.017-1.69,7.644
			C153.072,201.098,103.425,183.362,63.496,154.107z M149.933,273.433c1.531-4.369,3.457-9.109,5.824-13.814
			c9.528-18.908,21.764-28.624,36.368-28.872v-0.035c0.601,0.041,1.201,0.064,1.802,0.1c-1.137,6.848-2.255,13.967-3.374,21.305
			C183.551,257.781,168.771,268.269,149.933,273.433z M399.489,559.332c-1.284,1.726-7.979,7.36-40.154,7.36h-0.006
			c-10.021,0-20.368-0.494-30.379-0.972c-8.826-0.424-17.165-0.818-24.355-0.818s-15.528,0.4-24.355,0.818
			c-10.011,0.478-20.357,0.972-30.379,0.972c-32.181,0-38.876-5.635-40.16-7.36c-4.64-6.236-2.232-15.917,0.913-23.124
			c7.82,1.849,14.869,3.716,18.572,6.318c17.489,12.307,44.947,19.367,75.344,19.367c30.397,0,57.855-7.061,75.344-19.367
			c3.716-2.614,10.817-4.493,18.685-6.348C401.715,543.403,404.135,553.09,399.489,559.332z M454.07,259.612
			c2.367,4.705,4.292,9.445,5.823,13.814c-19.668-5.388-34.907-16.582-41.49-22.035c-1.078-7.031-2.149-13.855-3.239-20.433
			c1.154-0.053,2.309-0.118,3.457-0.188C432.824,231.412,444.748,241.104,454.07,259.612z M576.651,125.377
			c-5.883,9.692-15.352,19.355-28.147,28.73c-40.778,29.878-91.685,47.732-138.486,48.957c-0.5-2.391-1.013-4.716-1.537-6.978
			c8.945-2.485,20.828-6.147,34.013-11.159c37.804-14.374,66.952-32.281,86.632-53.221c14.073-14.975,19.991-30.656,17.589-46.62
			c-1.938-12.884-9.292-25.062-21.858-36.196c-1.266-1.125-2.55-2.203-3.827-3.227c4.476-0.506,9.057-0.406,13.608,0.312
			c17.4,2.762,33.677,14.386,42.474,30.332c2.697,4.887,4.652,10.081,5.807,15.434C585.425,103.307,583.37,114.307,576.651,125.377z
			"/>
	</g>
</g>
</svg>
